<svg xmlns="http://www.w3.org/2000/svg" viewBox="0 0 240 160" width="240" height="160" fill="none">
  <rect width="240" height="160" rx="12" fill="#09090B"/>
  <rect width="238" height="158" x="1" y="1" rx="11" stroke="#26262B" stroke-width="1.5"/>
  
  <!-- Studio Backlight Glow -->
  <radialGradient id="omGlow" cx="50%" cy="50%" r="50%">
    <stop offset="0%" stop-color="#FF4FA3" stop-opacity="0.25"/>
    <stop offset="100%" stop-color="#09090B" stop-opacity="0"/>
  </radialGradient>
  <circle cx="120" cy="80" r="70" fill="url(#omGlow)"/>
  
  <!-- Subtle Grid Lines -->
  <path d="M0 40h240M0 80h240M0 120h240M60 0v160M120 0v160M180 0v160" stroke="#1F1F24" stroke-width="0.5" stroke-dasharray="3 3"/>
  
  <!-- Character Bust Silhouette -->
  <!-- Torso / Hoodie -->
  <path d="M70 160 C70 125, 90 115, 120 115 C150 115, 170 125, 170 160 Z" fill="#16161A" stroke="#2D2D35" stroke-width="1.5"/>
  <path d="M105 115 L120 135 L135 115" stroke="#FF4FA3" stroke-width="1.5" fill="none"/>
  
  <!-- Neck -->
  <rect x="112" y="98" width="16" height="18" rx="2" fill="#F4F1EA" opacity="0.9"/>
  
  <!-- Head -->
  <rect x="94" y="44" width="52" height="58" rx="16" fill="#F4F1EA"/>
  
  <!-- Hair -->
  <path d="M88 56 C88 34, 110 28, 120 28 C135 28, 154 36, 154 56 C150 48, 142 46, 134 46 C124 46, 116 42, 106 44 C96 46, 90 52, 88 56 Z" fill="#09090B"/>
  
  <!-- Glasses Frame (Electric Pink) -->
  <rect x="99" y="60" width="18" height="14" rx="3" fill="#111114" stroke="#FF4FA3" stroke-width="2"/>
  <rect x="123" y="60" width="18" height="14" rx="3" fill="#111114" stroke="#FF4FA3" stroke-width="2"/>
  <line x1="117" y1="67" x2="123" y2="67" stroke="#FF4FA3" stroke-width="2"/>
  
  <!-- Eyes -->
  <circle cx="108" cy="67" r="2.5" fill="#FF4FA3"/>
  <circle cx="132" cy="67" r="2.5" fill="#FF4FA3"/>
  <circle cx="109" cy="66" r="0.8" fill="#FFFFFF"/>
  <circle cx="133" cy="66" r="0.8" fill="#FFFFFF"/>
  
  <!-- Chapter Badge Pill -->
  <rect x="12" y="12" width="68" height="18" rx="4" fill="#16161A" stroke="#2D2D35" stroke-width="1"/>
  <text x="46" y="24" fill="#FF4FA3" font-family="monospace" font-size="9" font-weight="bold" text-anchor="middle" letter-spacing="1">01 // OM</text>
  
  <!-- Status Dot -->
  <circle cx="218" cy="20" r="3.5" fill="#FFD84D"/>
</svg>
